<svg width="32" height="33" viewBox="0 0 32 33" fill="none"
  xmlns="http://www.w3.org/2000/svg">
  <path d="M16 1.9895C24.2843 1.9895 31 8.70523 31 16.9895C31 25.2738 24.2843 31.9895 16 31.9895C7.71573 31.9895 1 25.2738 1 16.9895C1 8.70523 7.71573 1.9895 16 1.9895Z" stroke="black" stroke-width="2"/>
  <path d="M16 20.7898C21.1023 20.7898 23.965 22.1693 25.3857 24.7712L25.4609 24.9177C26.1451 26.3392 25.6103 27.9361 24.4961 28.8523L24.2568 29.032C21.9081 30.6453 19.0628 31.5896 16 31.5896C13.1283 31.5896 10.4478 30.7592 8.18848 29.3259L7.74219 29.031C6.42816 28.1281 5.76492 26.3251 6.61328 24.7712L6.75098 24.531C8.21542 22.0843 11.0569 20.7898 16 20.7898ZM16 6.3894C19.2031 6.38947 21.7997 8.98609 21.7998 12.1892C21.7998 15.3924 19.2032 17.9889 16 17.989C12.7967 17.989 10.2002 15.3925 10.2002 12.1892C10.2003 8.98605 12.7968 6.3894 16 6.3894Z" stroke="black" stroke-width="2"/>
</svg>
