<svg width="32" height="26" viewBox="0 0 32 26" fill="none"
  xmlns="http://www.w3.org/2000/svg">
  <path d="M16.1186 2.66782L23.5446 9.361C24.9328 10.6122 25.6269 11.2379 25.8827 11.9766C26.1074 12.6254 26.1074 13.3324 25.8827 13.9811C25.6269 14.7199 24.9328 15.3455 23.5446 16.5967L16.1186 23.2899C15.4887 23.8577 15.1737 24.1416 14.9061 24.1518C14.6737 24.1606 14.4505 24.059 14.3026 23.877C14.1323 23.6675 14.1323 23.2401 14.1323 22.3854V18.1652C10.5101 18.1652 6.68427 19.3448 3.8907 21.4389C2.43635 22.5291 1.70915 23.0742 1.43218 23.0527C1.1622 23.0317 0.990861 22.9248 0.85078 22.6899C0.707073 22.4488 0.834002 21.6957 1.08786 20.1893C2.73626 10.4082 9.37474 7.79257 14.1323 7.79257V3.57229C14.1323 2.71761 14.1323 2.29026 14.3026 2.08076C14.4505 1.89874 14.6737 1.79712 14.9061 1.80594C15.1737 1.81609 15.4887 2.1 16.1186 2.66782Z" fill="black"/>
  <path fill-rule="evenodd" clip-rule="evenodd" d="M20.0829 0.861863C20.5034 0.402717 21.2113 0.376131 21.6641 0.80248L29.4457 8.12928C30.8583 9.45937 31.661 11.3258 31.661 13.2805C31.661 15.3411 30.7694 17.2979 29.2219 18.6335L21.628 25.1878C21.1575 25.5939 20.4513 25.5364 20.0508 25.0593C19.6503 24.5821 19.707 23.8661 20.1776 23.46L27.7715 16.9057C28.8195 16.0012 29.4233 14.676 29.4233 13.2805C29.4233 11.9568 28.8797 10.6928 27.923 9.792L20.1415 2.46519C19.6887 2.03884 19.6625 1.32101 20.0829 0.861863Z" fill="black"/>
</svg>
