<svg width="53" height="69" viewBox="0 0 53 69" fill="none"
  xmlns="http://www.w3.org/2000/svg">
  <path d="M49.3333 61.8033C42.8391 66.2643 34.9746 68.8751 26.5004 68.8751C18.026 68.8751 10.1613 66.2642 3.667 61.803C0.798688 59.8326 -0.427076 56.0793 1.24063 53.0251C4.6978 46.6936 11.8215 42.7501 26.5001 42.7501C41.1791 42.7501 48.3027 46.6938 51.7598 53.0254C53.4275 56.0797 52.2017 59.8329 49.3333 61.8033Z" fill="#A7A7A7"/>
  <path d="M26.5005 28.5001C34.3705 28.5001 40.7505 22.1201 40.7505 14.2501C40.7505 6.38 34.3705 6.10352e-05 26.5005 6.10352e-05C18.6304 6.10352e-05 12.2505 6.38 12.2505 14.2501C12.2505 22.1201 18.6304 28.5001 26.5005 28.5001Z" fill="#A7A7A7"/>
</svg>
