<svg width="355" height="155" viewBox="0 0 355 155" fill="none"
  xmlns="http://www.w3.org/2000/svg">
  <path d="M0.8 131.38V130.5L3.2 129.9V137H2.35V130.92L0.8 131.38ZM5.75195 133.5C5.75195 133.907 5.79195 134.283 5.87195 134.63C5.95195 134.97 6.06862 135.267 6.22195 135.52C6.37529 135.767 6.55862 135.96 6.77195 136.1C6.99195 136.233 7.23529 136.3 7.50195 136.3C7.77529 136.3 8.01862 136.233 8.23195 136.1C8.44529 135.96 8.62862 135.767 8.78195 135.52C8.93529 135.267 9.05195 134.97 9.13195 134.63C9.21195 134.283 9.25195 133.907 9.25195 133.5C9.25195 133.093 9.21195 132.72 9.13195 132.38C9.05195 132.033 8.93529 131.737 8.78195 131.49C8.62862 131.237 8.44529 131.043 8.23195 130.91C8.01862 130.77 7.77529 130.7 7.50195 130.7C7.23529 130.7 6.99195 130.77 6.77195 130.91C6.55862 131.043 6.37529 131.237 6.22195 131.49C6.06862 131.737 5.95195 132.033 5.87195 132.38C5.79195 132.72 5.75195 133.093 5.75195 133.5ZM4.90195 133.5C4.90195 132.8 5.01195 132.18 5.23195 131.64C5.45195 131.1 5.75529 130.677 6.14195 130.37C6.53529 130.057 6.98862 129.9 7.50195 129.9C8.01529 129.9 8.46529 130.057 8.85195 130.37C9.24529 130.677 9.55195 131.1 9.77195 131.64C9.99195 132.18 10.102 132.8 10.102 133.5C10.102 134.2 9.99195 134.82 9.77195 135.36C9.55195 135.9 9.24529 136.327 8.85195 136.64C8.46529 136.947 8.01529 137.1 7.50195 137.1C6.98862 137.1 6.53529 136.947 6.14195 136.64C5.75529 136.327 5.45195 135.9 5.23195 135.36C5.01195 134.82 4.90195 134.2 4.90195 133.5ZM11.748 133.5C11.748 133.907 11.788 134.283 11.868 134.63C11.948 134.97 12.0647 135.267 12.218 135.52C12.3714 135.767 12.5547 135.96 12.768 136.1C12.988 136.233 13.2314 136.3 13.498 136.3C13.7714 136.3 14.0147 136.233 14.228 136.1C14.4414 135.96 14.6247 135.767 14.778 135.52C14.9314 135.267 15.048 134.97 15.128 134.63C15.208 134.283 15.248 133.907 15.248 133.5C15.248 133.093 15.208 132.72 15.128 132.38C15.048 132.033 14.9314 131.737 14.778 131.49C14.6247 131.237 14.4414 131.043 14.228 130.91C14.0147 130.77 13.7714 130.7 13.498 130.7C13.2314 130.7 12.988 130.77 12.768 130.91C12.5547 131.043 12.3714 131.237 12.218 131.49C12.0647 131.737 11.948 132.033 11.868 132.38C11.788 132.72 11.748 133.093 11.748 133.5ZM10.898 133.5C10.898 132.8 11.008 132.18 11.228 131.64C11.448 131.1 11.7514 130.677 12.138 130.37C12.5314 130.057 12.9847 129.9 13.498 129.9C14.0114 129.9 14.4614 130.057 14.848 130.37C15.2414 130.677 15.548 131.1 15.768 131.64C15.988 132.18 16.098 132.8 16.098 133.5C16.098 134.2 15.988 134.82 15.768 135.36C15.548 135.9 15.2414 136.327 14.848 136.64C14.4614 136.947 14.0114 137.1 13.498 137.1C12.9847 137.1 12.5314 136.947 12.138 136.64C11.7514 136.327 11.448 135.9 11.228 135.36C11.008 134.82 10.898 134.2 10.898 133.5ZM17.7441 133.5C17.7441 133.907 17.7841 134.283 17.8641 134.63C17.9441 134.97 18.0608 135.267 18.2141 135.52C18.3675 135.767 18.5508 135.96 18.7641 136.1C18.9841 136.233 19.2275 136.3 19.4941 136.3C19.7675 136.3 20.0108 136.233 20.2241 136.1C20.4375 135.96 20.6208 135.767 20.7741 135.52C20.9275 135.267 21.0441 134.97 21.1241 134.63C21.2041 134.283 21.2441 133.907 21.2441 133.5C21.2441 133.093 21.2041 132.72 21.1241 132.38C21.0441 132.033 20.9275 131.737 20.7741 131.49C20.6208 131.237 20.4375 131.043 20.2241 130.91C20.0108 130.77 19.7675 130.7 19.4941 130.7C19.2275 130.7 18.9841 130.77 18.7641 130.91C18.5508 131.043 18.3675 131.237 18.2141 131.49C18.0608 131.737 17.9441 132.033 17.8641 132.38C17.7841 132.72 17.7441 133.093 17.7441 133.5ZM16.8941 133.5C16.8941 132.8 17.0041 132.18 17.2241 131.64C17.4441 131.1 17.7475 130.677 18.1341 130.37C18.5275 130.057 18.9808 129.9 19.4941 129.9C20.0075 129.9 20.4575 130.057 20.8441 130.37C21.2375 130.677 21.5441 131.1 21.7641 131.64C21.9841 132.18 22.0941 132.8 22.0941 133.5C22.0941 134.2 21.9841 134.82 21.7641 135.36C21.5441 135.9 21.2375 136.327 20.8441 136.64C20.4575 136.947 20.0075 137.1 19.4941 137.1C18.9808 137.1 18.5275 136.947 18.1341 136.64C17.7475 136.327 17.4441 135.9 17.2241 135.36C17.0041 134.82 16.8941 134.2 16.8941 133.5Z" fill="white"/>
  <path d="M43.5241 145.38V144.5L45.9241 143.9V151H45.0741V144.92L43.5241 145.38ZM47.4261 151L50.7361 147.47C50.8894 147.303 51.0194 147.14 51.1261 146.98C51.2394 146.813 51.3227 146.647 51.3761 146.48C51.4361 146.307 51.4661 146.127 51.4661 145.94C51.4661 145.787 51.4361 145.637 51.3761 145.49C51.3161 145.343 51.2261 145.21 51.1061 145.09C50.9927 144.97 50.8527 144.873 50.6861 144.8C50.5194 144.727 50.3294 144.69 50.1161 144.69C49.8161 144.69 49.5561 144.76 49.3361 144.9C49.1227 145.033 48.9594 145.23 48.8461 145.49C48.7327 145.743 48.6761 146.047 48.6761 146.4H47.8261C47.8261 145.9 47.9161 145.463 48.0961 145.09C48.2761 144.71 48.5361 144.417 48.8761 144.21C49.2227 143.997 49.6361 143.89 50.1161 143.89C50.5027 143.89 50.8361 143.957 51.1161 144.09C51.3961 144.217 51.6261 144.383 51.8061 144.59C51.9861 144.79 52.1194 145.007 52.2061 145.24C52.2927 145.473 52.3361 145.697 52.3361 145.91C52.3361 146.27 52.2494 146.627 52.0761 146.98C51.9027 147.333 51.6794 147.65 51.4061 147.93L49.1761 150.2H52.3661V151H47.4261Z" fill="white"/>
  <path d="M69.9724 145.38V144.5L72.3724 143.9V151H71.5224V144.92L69.9724 145.38ZM76.2043 147.55V147C76.431 147 76.631 146.97 76.8043 146.91C76.9776 146.843 77.1243 146.757 77.2443 146.65C77.3643 146.537 77.4543 146.407 77.5143 146.26C77.581 146.113 77.6143 145.957 77.6143 145.79C77.6143 145.57 77.5743 145.377 77.4943 145.21C77.4143 145.037 77.2943 144.903 77.1343 144.81C76.981 144.717 76.7876 144.67 76.5543 144.67C76.2276 144.67 75.951 144.773 75.7243 144.98C75.4976 145.18 75.3843 145.433 75.3843 145.74H74.5743C74.5743 145.373 74.6576 145.053 74.8243 144.78C74.9976 144.507 75.231 144.293 75.5243 144.14C75.8243 143.98 76.1643 143.9 76.5443 143.9C76.9443 143.9 77.2876 143.987 77.5743 144.16C77.8676 144.333 78.091 144.56 78.2443 144.84C78.4043 145.12 78.4843 145.427 78.4843 145.76C78.4843 146.087 78.3877 146.387 78.1943 146.66C78.001 146.933 77.7343 147.15 77.3943 147.31C77.0543 147.47 76.6576 147.55 76.2043 147.55ZM76.5043 151.1C76.1643 151.1 75.8576 151.05 75.5843 150.95C75.311 150.85 75.0776 150.713 74.8843 150.54C74.691 150.36 74.541 150.153 74.4343 149.92C74.3276 149.68 74.2743 149.423 74.2743 149.15H75.1343C75.1343 149.37 75.191 149.567 75.3043 149.74C75.4243 149.913 75.5876 150.05 75.7943 150.15C76.001 150.25 76.2376 150.3 76.5043 150.3C76.771 150.3 77.001 150.25 77.1943 150.15C77.3943 150.043 77.5477 149.897 77.6543 149.71C77.761 149.523 77.8143 149.303 77.8143 149.05C77.8143 148.837 77.771 148.65 77.6843 148.49C77.6043 148.323 77.491 148.187 77.3443 148.08C77.1976 147.967 77.0276 147.883 76.8343 147.83C76.641 147.777 76.431 147.75 76.2043 147.75V147.2C76.5443 147.2 76.861 147.237 77.1543 147.31C77.4543 147.383 77.7176 147.5 77.9443 147.66C78.1776 147.813 78.3576 148.013 78.4843 148.26C78.6177 148.507 78.6843 148.803 78.6843 149.15C78.6843 149.543 78.5877 149.887 78.3943 150.18C78.2077 150.473 77.951 150.7 77.6243 150.86C77.2976 151.02 76.9243 151.1 76.5043 151.1Z" fill="white"/>
  <path d="M96.4207 145.38V144.5L98.8207 143.9V151H97.9707V144.92L96.4207 145.38ZM100.323 149.6L104.203 144H104.553V151H103.703V149.24V149.13V145.89L101.723 148.85H104.053H104.223H105.653V149.6H100.323Z" fill="white"/>
  <path d="M122.869 145.38V144.5L125.269 143.9V151H124.419V144.92L122.869 145.38ZM131.811 148.7C131.811 149.1 131.748 149.45 131.621 149.75C131.494 150.05 131.318 150.3 131.091 150.5C130.864 150.7 130.604 150.85 130.311 150.95C130.018 151.05 129.701 151.1 129.361 151.1C128.934 151.1 128.561 151.033 128.241 150.9C127.928 150.767 127.658 150.59 127.431 150.37C127.211 150.143 127.024 149.897 126.871 149.63L127.591 149.14C127.698 149.34 127.838 149.53 128.011 149.71C128.191 149.883 128.398 150.027 128.631 150.14C128.864 150.247 129.108 150.3 129.361 150.3C129.694 150.3 129.978 150.233 130.211 150.1C130.444 149.967 130.621 149.78 130.741 149.54C130.868 149.3 130.931 149.02 130.931 148.7C130.931 148.38 130.861 148.1 130.721 147.86C130.588 147.62 130.401 147.433 130.161 147.3C129.928 147.167 129.661 147.1 129.361 147.1C129.141 147.1 128.938 147.12 128.751 147.16C128.571 147.193 128.388 147.257 128.201 147.35C128.021 147.437 127.811 147.563 127.571 147.73L128.491 144H131.791V144.75H129.151L128.681 146.6C128.848 146.513 129.018 146.45 129.191 146.41C129.371 146.363 129.548 146.34 129.721 146.34C130.121 146.34 130.478 146.44 130.791 146.64C131.111 146.84 131.361 147.117 131.541 147.47C131.721 147.823 131.811 148.233 131.811 148.7Z" fill="white"/>
  <path d="M149.317 145.38V144.5L151.717 143.9V151H150.867V144.92L149.317 145.38ZM154.329 148.7C154.329 149.02 154.396 149.303 154.529 149.55C154.669 149.79 154.856 149.98 155.089 150.12C155.329 150.26 155.599 150.33 155.899 150.33C156.199 150.33 156.466 150.26 156.699 150.12C156.939 149.98 157.126 149.79 157.259 149.55C157.399 149.303 157.469 149.02 157.469 148.7C157.469 148.38 157.399 148.097 157.259 147.85C157.126 147.597 156.939 147.4 156.699 147.26C156.466 147.12 156.199 147.05 155.899 147.05C155.599 147.05 155.329 147.12 155.089 147.26C154.856 147.4 154.669 147.597 154.529 147.85C154.396 148.097 154.329 148.38 154.329 148.7ZM156.319 144H157.389L155.199 146.89L155.139 146.84C155.273 146.673 155.426 146.563 155.599 146.51C155.779 146.457 155.983 146.43 156.209 146.43C156.496 146.43 156.763 146.487 157.009 146.6C157.263 146.713 157.483 146.873 157.669 147.08C157.863 147.287 158.013 147.53 158.119 147.81C158.226 148.083 158.279 148.38 158.279 148.7C158.279 149.18 158.173 149.6 157.959 149.96C157.753 150.32 157.469 150.6 157.109 150.8C156.756 151 156.353 151.1 155.899 151.1C155.453 151.1 155.049 151 154.689 150.8C154.329 150.6 154.043 150.32 153.829 149.96C153.623 149.6 153.519 149.18 153.519 148.7C153.519 148.413 153.559 148.147 153.639 147.9C153.719 147.653 153.826 147.437 153.959 147.25L156.319 144Z" fill="white"/>
  <path d="M175.766 145.38V144.5L178.166 143.9V151H177.316V144.92L175.766 145.38ZM179.768 144.8V144H184.668L181.318 151H180.428L183.398 144.8H179.768Z" fill="white"/>
  <path d="M202.214 145.38V144.5L204.614 143.9V151H203.764V144.92L202.214 145.38ZM206.716 145.69C206.716 145.357 206.799 145.057 206.966 144.79C207.139 144.517 207.369 144.3 207.656 144.14C207.949 143.98 208.279 143.9 208.646 143.9C209.012 143.9 209.339 143.98 209.626 144.14C209.919 144.3 210.149 144.517 210.316 144.79C210.489 145.057 210.576 145.357 210.576 145.69C210.576 145.963 210.529 146.21 210.436 146.43C210.342 146.643 210.209 146.827 210.036 146.98C209.869 147.133 209.666 147.25 209.426 147.33C209.192 147.41 208.932 147.45 208.646 147.45C208.359 147.45 208.096 147.41 207.856 147.33C207.622 147.25 207.419 147.133 207.246 146.98C207.079 146.827 206.949 146.643 206.856 146.43C206.762 146.21 206.716 145.963 206.716 145.69ZM207.526 145.79C207.526 146.01 207.576 146.203 207.676 146.37C207.782 146.537 207.919 146.667 208.086 146.76C208.259 146.853 208.446 146.9 208.646 146.9C208.846 146.9 209.029 146.853 209.196 146.76C209.369 146.667 209.506 146.537 209.606 146.37C209.712 146.203 209.766 146.01 209.766 145.79C209.766 145.57 209.716 145.373 209.616 145.2C209.522 145.027 209.392 144.893 209.226 144.8C209.059 144.7 208.866 144.65 208.646 144.65C208.432 144.65 208.239 144.7 208.066 144.8C207.899 144.893 207.766 145.027 207.666 145.2C207.572 145.373 207.526 145.57 207.526 145.79ZM206.466 149.1C206.466 148.78 206.522 148.497 206.636 148.25C206.756 147.997 206.916 147.787 207.116 147.62C207.322 147.447 207.556 147.317 207.816 147.23C208.082 147.143 208.359 147.1 208.646 147.1C208.932 147.1 209.206 147.143 209.466 147.23C209.732 147.317 209.966 147.447 210.166 147.62C210.372 147.787 210.532 147.997 210.646 148.25C210.766 148.497 210.826 148.78 210.826 149.1C210.826 149.373 210.769 149.63 210.656 149.87C210.549 150.11 210.396 150.323 210.196 150.51C210.002 150.697 209.772 150.843 209.506 150.95C209.246 151.05 208.959 151.1 208.646 151.1C208.332 151.1 208.042 151.05 207.776 150.95C207.516 150.843 207.286 150.697 207.086 150.51C206.892 150.323 206.739 150.11 206.626 149.87C206.519 149.63 206.466 149.373 206.466 149.1ZM207.276 149C207.276 149.287 207.339 149.53 207.466 149.73C207.599 149.93 207.769 150.083 207.976 150.19C208.189 150.297 208.412 150.35 208.646 150.35C208.879 150.35 209.099 150.297 209.306 150.19C209.519 150.083 209.689 149.93 209.816 149.73C209.949 149.53 210.016 149.287 210.016 149C210.016 148.747 209.949 148.52 209.816 148.32C209.689 148.113 209.519 147.95 209.306 147.83C209.099 147.71 208.879 147.65 208.646 147.65C208.412 147.65 208.189 147.71 207.976 147.83C207.769 147.95 207.599 148.113 207.466 148.32C207.339 148.52 207.276 148.747 207.276 149Z" fill="white"/>
  <path d="M228.662 145.38V144.5L231.062 143.9V151H230.212V144.92L228.662 145.38ZM236.814 146.3C236.814 145.98 236.744 145.7 236.604 145.46C236.471 145.213 236.284 145.02 236.044 144.88C235.811 144.74 235.544 144.67 235.244 144.67C234.944 144.67 234.674 144.74 234.434 144.88C234.201 145.02 234.014 145.213 233.874 145.46C233.741 145.7 233.674 145.98 233.674 146.3C233.674 146.62 233.741 146.903 233.874 147.15C234.014 147.397 234.201 147.593 234.434 147.74C234.674 147.88 234.944 147.95 235.244 147.95C235.544 147.95 235.811 147.88 236.044 147.74C236.284 147.593 236.471 147.397 236.604 147.15C236.744 146.903 236.814 146.62 236.814 146.3ZM234.824 151H233.754L235.944 148.11L236.004 148.16C235.871 148.327 235.714 148.437 235.534 148.49C235.361 148.543 235.161 148.57 234.934 148.57C234.647 148.57 234.377 148.513 234.124 148.4C233.877 148.287 233.657 148.127 233.464 147.92C233.277 147.713 233.131 147.473 233.024 147.2C232.917 146.92 232.864 146.62 232.864 146.3C232.864 145.82 232.967 145.4 233.174 145.04C233.387 144.68 233.674 144.4 234.034 144.2C234.394 144 234.797 143.9 235.244 143.9C235.697 143.9 236.101 144 236.454 144.2C236.814 144.4 237.097 144.68 237.304 145.04C237.517 145.4 237.624 145.82 237.624 146.3C237.624 146.587 237.584 146.853 237.504 147.1C237.424 147.347 237.317 147.563 237.184 147.75L234.824 151Z" fill="white"/>
  <path d="M254.51 151L257.82 147.47C257.974 147.303 258.104 147.14 258.21 146.98C258.324 146.813 258.407 146.647 258.46 146.48C258.52 146.307 258.55 146.127 258.55 145.94C258.55 145.787 258.52 145.637 258.46 145.49C258.4 145.343 258.31 145.21 258.19 145.09C258.077 144.97 257.937 144.873 257.77 144.8C257.604 144.727 257.414 144.69 257.2 144.69C256.9 144.69 256.64 144.76 256.42 144.9C256.207 145.033 256.044 145.23 255.93 145.49C255.817 145.743 255.76 146.047 255.76 146.4H254.91C254.91 145.9 255 145.463 255.18 145.09C255.36 144.71 255.62 144.417 255.96 144.21C256.307 143.997 256.72 143.89 257.2 143.89C257.587 143.89 257.92 143.957 258.2 144.09C258.48 144.217 258.71 144.383 258.89 144.59C259.07 144.79 259.204 145.007 259.29 145.24C259.377 145.473 259.42 145.697 259.42 145.91C259.42 146.27 259.334 146.627 259.16 146.98C258.987 147.333 258.764 147.65 258.49 147.93L256.26 150.2H259.45V151H254.51ZM261.254 147.5C261.254 147.907 261.294 148.283 261.374 148.63C261.454 148.97 261.57 149.267 261.724 149.52C261.877 149.767 262.06 149.96 262.274 150.1C262.494 150.233 262.737 150.3 263.004 150.3C263.277 150.3 263.52 150.233 263.734 150.1C263.947 149.96 264.13 149.767 264.284 149.52C264.437 149.267 264.554 148.97 264.634 148.63C264.714 148.283 264.754 147.907 264.754 147.5C264.754 147.093 264.714 146.72 264.634 146.38C264.554 146.033 264.437 145.737 264.284 145.49C264.13 145.237 263.947 145.043 263.734 144.91C263.52 144.77 263.277 144.7 263.004 144.7C262.737 144.7 262.494 144.77 262.274 144.91C262.06 145.043 261.877 145.237 261.724 145.49C261.57 145.737 261.454 146.033 261.374 146.38C261.294 146.72 261.254 147.093 261.254 147.5ZM260.404 147.5C260.404 146.8 260.514 146.18 260.734 145.64C260.954 145.1 261.257 144.677 261.644 144.37C262.037 144.057 262.49 143.9 263.004 143.9C263.517 143.9 263.967 144.057 264.354 144.37C264.747 144.677 265.054 145.1 265.274 145.64C265.494 146.18 265.604 146.8 265.604 147.5C265.604 148.2 265.494 148.82 265.274 149.36C265.054 149.9 264.747 150.327 264.354 150.64C263.967 150.947 263.517 151.1 263.004 151.1C262.49 151.1 262.037 150.947 261.644 150.64C261.257 150.327 260.954 149.9 260.734 149.36C260.514 148.82 260.404 148.2 260.404 147.5Z" fill="white"/>
  <path d="M280.959 151L284.269 147.47C284.422 147.303 284.552 147.14 284.659 146.98C284.772 146.813 284.855 146.647 284.909 146.48C284.969 146.307 284.999 146.127 284.999 145.94C284.999 145.787 284.969 145.637 284.909 145.49C284.849 145.343 284.759 145.21 284.639 145.09C284.525 144.97 284.385 144.873 284.219 144.8C284.052 144.727 283.862 144.69 283.649 144.69C283.349 144.69 283.089 144.76 282.869 144.9C282.655 145.033 282.492 145.23 282.379 145.49C282.265 145.743 282.209 146.047 282.209 146.4H281.359C281.359 145.9 281.449 145.463 281.629 145.09C281.809 144.71 282.069 144.417 282.409 144.21C282.755 143.997 283.169 143.89 283.649 143.89C284.035 143.89 284.369 143.957 284.649 144.09C284.929 144.217 285.159 144.383 285.339 144.59C285.519 144.79 285.652 145.007 285.739 145.24C285.825 145.473 285.869 145.697 285.869 145.91C285.869 146.27 285.782 146.627 285.609 146.98C285.435 147.333 285.212 147.65 284.939 147.93L282.709 150.2H285.899V151H280.959ZM287.252 145.38V144.5L289.652 143.9V151H288.802V144.92L287.252 145.38Z" fill="white"/>
  <path d="M307.407 151L310.717 147.47C310.87 147.303 311 147.14 311.107 146.98C311.22 146.813 311.304 146.647 311.357 146.48C311.417 146.307 311.447 146.127 311.447 145.94C311.447 145.787 311.417 145.637 311.357 145.49C311.297 145.343 311.207 145.21 311.087 145.09C310.974 144.97 310.834 144.873 310.667 144.8C310.5 144.727 310.31 144.69 310.097 144.69C309.797 144.69 309.537 144.76 309.317 144.9C309.104 145.033 308.94 145.23 308.827 145.49C308.714 145.743 308.657 146.047 308.657 146.4H307.807C307.807 145.9 307.897 145.463 308.077 145.09C308.257 144.71 308.517 144.417 308.857 144.21C309.204 143.997 309.617 143.89 310.097 143.89C310.484 143.89 310.817 143.957 311.097 144.09C311.377 144.217 311.607 144.383 311.787 144.59C311.967 144.79 312.1 145.007 312.187 145.24C312.274 145.473 312.317 145.697 312.317 145.91C312.317 146.27 312.23 146.627 312.057 146.98C311.884 147.333 311.66 147.65 311.387 147.93L309.157 150.2H312.347V151H307.407ZM313.1 151L316.41 147.47C316.564 147.303 316.694 147.14 316.8 146.98C316.914 146.813 316.997 146.647 317.05 146.48C317.11 146.307 317.14 146.127 317.14 145.94C317.14 145.787 317.11 145.637 317.05 145.49C316.99 145.343 316.9 145.21 316.78 145.09C316.667 144.97 316.527 144.873 316.36 144.8C316.194 144.727 316.004 144.69 315.79 144.69C315.49 144.69 315.23 144.76 315.01 144.9C314.797 145.033 314.634 145.23 314.52 145.49C314.407 145.743 314.35 146.047 314.35 146.4H313.5C313.5 145.9 313.59 145.463 313.77 145.09C313.95 144.71 314.21 144.417 314.55 144.21C314.897 143.997 315.31 143.89 315.79 143.89C316.177 143.89 316.51 143.957 316.79 144.09C317.07 144.217 317.3 144.383 317.48 144.59C317.66 144.79 317.794 145.007 317.88 145.24C317.967 145.473 318.01 145.697 318.01 145.91C318.01 146.27 317.924 146.627 317.75 146.98C317.577 147.333 317.354 147.65 317.08 147.93L314.85 150.2H318.04V151H313.1Z" fill="white"/>
  <path d="M333.855 151L337.165 147.47C337.319 147.303 337.449 147.14 337.555 146.98C337.669 146.813 337.752 146.647 337.805 146.48C337.865 146.307 337.895 146.127 337.895 145.94C337.895 145.787 337.865 145.637 337.805 145.49C337.745 145.343 337.655 145.21 337.535 145.09C337.422 144.97 337.282 144.873 337.115 144.8C336.949 144.727 336.759 144.69 336.545 144.69C336.245 144.69 335.985 144.76 335.765 144.9C335.552 145.033 335.389 145.23 335.275 145.49C335.162 145.743 335.105 146.047 335.105 146.4H334.255C334.255 145.9 334.345 145.463 334.525 145.09C334.705 144.71 334.965 144.417 335.305 144.21C335.652 143.997 336.065 143.89 336.545 143.89C336.932 143.89 337.265 143.957 337.545 144.09C337.825 144.217 338.055 144.383 338.235 144.59C338.415 144.79 338.549 145.007 338.635 145.24C338.722 145.473 338.765 145.697 338.765 145.91C338.765 146.27 338.679 146.627 338.505 146.98C338.332 147.333 338.109 147.65 337.835 147.93L335.605 150.2H338.795V151H333.855ZM341.879 147.55V147C342.105 147 342.305 146.97 342.479 146.91C342.652 146.843 342.799 146.757 342.919 146.65C343.039 146.537 343.129 146.407 343.189 146.26C343.255 146.113 343.289 145.957 343.289 145.79C343.289 145.57 343.249 145.377 343.169 145.21C343.089 145.037 342.969 144.903 342.809 144.81C342.655 144.717 342.462 144.67 342.229 144.67C341.902 144.67 341.625 144.773 341.399 144.98C341.172 145.18 341.059 145.433 341.059 145.74H340.249C340.249 145.373 340.332 145.053 340.499 144.78C340.672 144.507 340.905 144.293 341.199 144.14C341.499 143.98 341.839 143.9 342.219 143.9C342.619 143.9 342.962 143.987 343.249 144.16C343.542 144.333 343.765 144.56 343.919 144.84C344.079 145.12 344.159 145.427 344.159 145.76C344.159 146.087 344.062 146.387 343.869 146.66C343.675 146.933 343.409 147.15 343.069 147.31C342.729 147.47 342.332 147.55 341.879 147.55ZM342.179 151.1C341.839 151.1 341.532 151.05 341.259 150.95C340.985 150.85 340.752 150.713 340.559 150.54C340.365 150.36 340.215 150.153 340.109 149.92C340.002 149.68 339.949 149.423 339.949 149.15H340.809C340.809 149.37 340.865 149.567 340.979 149.74C341.099 149.913 341.262 150.05 341.469 150.15C341.675 150.25 341.912 150.3 342.179 150.3C342.445 150.3 342.675 150.25 342.869 150.15C343.069 150.043 343.222 149.897 343.329 149.71C343.435 149.523 343.489 149.303 343.489 149.05C343.489 148.837 343.445 148.65 343.359 148.49C343.279 148.323 343.165 148.187 343.019 148.08C342.872 147.967 342.702 147.883 342.509 147.83C342.315 147.777 342.105 147.75 341.879 147.75V147.2C342.219 147.2 342.535 147.237 342.829 147.31C343.129 147.383 343.392 147.5 343.619 147.66C343.852 147.813 344.032 148.013 344.159 148.26C344.292 148.507 344.359 148.803 344.359 149.15C344.359 149.543 344.262 149.887 344.069 150.18C343.882 150.473 343.625 150.7 343.299 150.86C342.972 151.02 342.599 151.1 342.179 151.1Z" fill="white"/>
  <path d="M0.2 110L3.51 106.47C3.66333 106.303 3.79333 106.14 3.9 105.98C4.01333 105.813 4.09667 105.647 4.15 105.48C4.21 105.307 4.24 105.127 4.24 104.94C4.24 104.787 4.21 104.637 4.15 104.49C4.09 104.343 4 104.21 3.88 104.09C3.76667 103.97 3.62667 103.873 3.46 103.8C3.29333 103.727 3.10333 103.69 2.89 103.69C2.59 103.69 2.33 103.76 2.11 103.9C1.89667 104.033 1.73333 104.23 1.62 104.49C1.50667 104.743 1.45 105.047 1.45 105.4H0.6C0.6 104.9 0.69 104.463 0.87 104.09C1.05 103.71 1.31 103.417 1.65 103.21C1.99667 102.997 2.41 102.89 2.89 102.89C3.27667 102.89 3.61 102.957 3.89 103.09C4.17 103.217 4.4 103.383 4.58 103.59C4.76 103.79 4.89333 104.007 4.98 104.24C5.06667 104.473 5.11 104.697 5.11 104.91C5.11 105.27 5.02333 105.627 4.85 105.98C4.67667 106.333 4.45333 106.65 4.18 106.93L1.95 109.2H5.14V110H0.2ZM6.94336 106.5C6.94336 106.907 6.98336 107.283 7.06336 107.63C7.14336 107.97 7.26003 108.267 7.41336 108.52C7.56669 108.767 7.75003 108.96 7.96336 109.1C8.18336 109.233 8.42669 109.3 8.69336 109.3C8.96669 109.3 9.21003 109.233 9.42336 109.1C9.63669 108.96 9.82003 108.767 9.97336 108.52C10.1267 108.267 10.2434 107.97 10.3234 107.63C10.4034 107.283 10.4434 106.907 10.4434 106.5C10.4434 106.093 10.4034 105.72 10.3234 105.38C10.2434 105.033 10.1267 104.737 9.97336 104.49C9.82003 104.237 9.63669 104.043 9.42336 103.91C9.21003 103.77 8.96669 103.7 8.69336 103.7C8.42669 103.7 8.18336 103.77 7.96336 103.91C7.75003 104.043 7.56669 104.237 7.41336 104.49C7.26003 104.737 7.14336 105.033 7.06336 105.38C6.98336 105.72 6.94336 106.093 6.94336 106.5ZM6.09336 106.5C6.09336 105.8 6.20336 105.18 6.42336 104.64C6.64336 104.1 6.94669 103.677 7.33336 103.37C7.72669 103.057 8.18003 102.9 8.69336 102.9C9.20669 102.9 9.65669 103.057 10.0434 103.37C10.4367 103.677 10.7434 104.1 10.9634 104.64C11.1834 105.18 11.2934 105.8 11.2934 106.5C11.2934 107.2 11.1834 107.82 10.9634 108.36C10.7434 108.9 10.4367 109.327 10.0434 109.64C9.65669 109.947 9.20669 110.1 8.69336 110.1C8.18003 110.1 7.72669 109.947 7.33336 109.64C6.94669 109.327 6.64336 108.9 6.42336 108.36C6.20336 107.82 6.09336 107.2 6.09336 106.5ZM12.9395 106.5C12.9395 106.907 12.9795 107.283 13.0595 107.63C13.1395 107.97 13.2561 108.267 13.4095 108.52C13.5628 108.767 13.7461 108.96 13.9595 109.1C14.1795 109.233 14.4228 109.3 14.6895 109.3C14.9628 109.3 15.2061 109.233 15.4195 109.1C15.6328 108.96 15.8161 108.767 15.9695 108.52C16.1228 108.267 16.2395 107.97 16.3195 107.63C16.3995 107.283 16.4395 106.907 16.4395 106.5C16.4395 106.093 16.3995 105.72 16.3195 105.38C16.2395 105.033 16.1228 104.737 15.9695 104.49C15.8161 104.237 15.6328 104.043 15.4195 103.91C15.2061 103.77 14.9628 103.7 14.6895 103.7C14.4228 103.7 14.1795 103.77 13.9595 103.91C13.7461 104.043 13.5628 104.237 13.4095 104.49C13.2561 104.737 13.1395 105.033 13.0595 105.38C12.9795 105.72 12.9395 106.093 12.9395 106.5ZM12.0895 106.5C12.0895 105.8 12.1995 105.18 12.4195 104.64C12.6395 104.1 12.9428 103.677 13.3295 103.37C13.7228 103.057 14.1761 102.9 14.6895 102.9C15.2028 102.9 15.6528 103.057 16.0395 103.37C16.4328 103.677 16.7395 104.1 16.9595 104.64C17.1795 105.18 17.2895 105.8 17.2895 106.5C17.2895 107.2 17.1795 107.82 16.9595 108.36C16.7395 108.9 16.4328 109.327 16.0395 109.64C15.6528 109.947 15.2028 110.1 14.6895 110.1C14.1761 110.1 13.7228 109.947 13.3295 109.64C12.9428 109.327 12.6395 108.9 12.4195 108.36C12.1995 107.82 12.0895 107.2 12.0895 106.5ZM18.9355 106.5C18.9355 106.907 18.9755 107.283 19.0555 107.63C19.1355 107.97 19.2522 108.267 19.4055 108.52C19.5589 108.767 19.7422 108.96 19.9555 109.1C20.1755 109.233 20.4189 109.3 20.6855 109.3C20.9589 109.3 21.2022 109.233 21.4155 109.1C21.6289 108.96 21.8122 108.767 21.9655 108.52C22.1189 108.267 22.2355 107.97 22.3155 107.63C22.3955 107.283 22.4355 106.907 22.4355 106.5C22.4355 106.093 22.3955 105.72 22.3155 105.38C22.2355 105.033 22.1189 104.737 21.9655 104.49C21.8122 104.237 21.6289 104.043 21.4155 103.91C21.2022 103.77 20.9589 103.7 20.6855 103.7C20.4189 103.7 20.1755 103.77 19.9555 103.91C19.7422 104.043 19.5589 104.237 19.4055 104.49C19.2522 104.737 19.1355 105.033 19.0555 105.38C18.9755 105.72 18.9355 106.093 18.9355 106.5ZM18.0855 106.5C18.0855 105.8 18.1955 105.18 18.4155 104.64C18.6355 104.1 18.9389 103.677 19.3255 103.37C19.7189 103.057 20.1722 102.9 20.6855 102.9C21.1989 102.9 21.6489 103.057 22.0355 103.37C22.4289 103.677 22.7355 104.1 22.9555 104.64C23.1755 105.18 23.2855 105.8 23.2855 106.5C23.2855 107.2 23.1755 107.82 22.9555 108.36C22.7355 108.9 22.4289 109.327 22.0355 109.64C21.6489 109.947 21.1989 110.1 20.6855 110.1C20.1722 110.1 19.7189 109.947 19.3255 109.64C18.9389 109.327 18.6355 108.9 18.4155 108.36C18.1955 107.82 18.0855 107.2 18.0855 106.5Z" fill="white"/>
  <path d="M2.53 79.55V79C2.75667 79 2.95667 78.97 3.13 78.91C3.30333 78.8433 3.45 78.7567 3.57 78.65C3.69 78.5367 3.78 78.4067 3.84 78.26C3.90667 78.1133 3.94 77.9567 3.94 77.79C3.94 77.57 3.9 77.3767 3.82 77.21C3.74 77.0367 3.62 76.9033 3.46 76.81C3.30667 76.7167 3.11333 76.67 2.88 76.67C2.55333 76.67 2.27667 76.7733 2.05 76.98C1.82333 77.18 1.71 77.4333 1.71 77.74H0.9C0.9 77.3733 0.983333 77.0533 1.15 76.78C1.32333 76.5067 1.55667 76.2933 1.85 76.14C2.15 75.98 2.49 75.9 2.87 75.9C3.27 75.9 3.61333 75.9867 3.9 76.16C4.19333 76.3333 4.41667 76.56 4.57 76.84C4.73 77.12 4.81 77.4267 4.81 77.76C4.81 78.0867 4.71333 78.3867 4.52 78.66C4.32667 78.9333 4.06 79.15 3.72 79.31C3.38 79.47 2.98333 79.55 2.53 79.55ZM2.83 83.1C2.49 83.1 2.18333 83.05 1.91 82.95C1.63667 82.85 1.40333 82.7133 1.21 82.54C1.01667 82.36 0.866667 82.1533 0.76 81.92C0.653333 81.68 0.6 81.4233 0.6 81.15H1.46C1.46 81.37 1.51667 81.5667 1.63 81.74C1.75 81.9133 1.91333 82.05 2.12 82.15C2.32667 82.25 2.56333 82.3 2.83 82.3C3.09667 82.3 3.32667 82.25 3.52 82.15C3.72 82.0433 3.87333 81.8967 3.98 81.71C4.08667 81.5233 4.14 81.3033 4.14 81.05C4.14 80.8367 4.09667 80.65 4.01 80.49C3.93 80.3233 3.81667 80.1867 3.67 80.08C3.52333 79.9667 3.35333 79.8833 3.16 79.83C2.96667 79.7767 2.75667 79.75 2.53 79.75V79.2C2.87 79.2 3.18667 79.2367 3.48 79.31C3.78 79.3833 4.04333 79.5 4.27 79.66C4.50333 79.8133 4.68333 80.0133 4.81 80.26C4.94333 80.5067 5.01 80.8033 5.01 81.15C5.01 81.5433 4.91333 81.8867 4.72 82.18C4.53333 82.4733 4.27667 82.7 3.95 82.86C3.62333 83.02 3.25 83.1 2.83 83.1ZM6.70898 79.5C6.70898 79.9067 6.74898 80.2833 6.82898 80.63C6.90898 80.97 7.02565 81.2667 7.17898 81.52C7.33232 81.7667 7.51565 81.96 7.72898 82.1C7.94898 82.2333 8.19232 82.3 8.45898 82.3C8.73232 82.3 8.97565 82.2333 9.18898 82.1C9.40232 81.96 9.58565 81.7667 9.73898 81.52C9.89232 81.2667 10.009 80.97 10.089 80.63C10.169 80.2833 10.209 79.9067 10.209 79.5C10.209 79.0933 10.169 78.72 10.089 78.38C10.009 78.0333 9.89232 77.7367 9.73898 77.49C9.58565 77.2367 9.40232 77.0433 9.18898 76.91C8.97565 76.77 8.73232 76.7 8.45898 76.7C8.19232 76.7 7.94898 76.77 7.72898 76.91C7.51565 77.0433 7.33232 77.2367 7.17898 77.49C7.02565 77.7367 6.90898 78.0333 6.82898 78.38C6.74898 78.72 6.70898 79.0933 6.70898 79.5ZM5.85898 79.5C5.85898 78.8 5.96898 78.18 6.18898 77.64C6.40898 77.1 6.71232 76.6767 7.09898 76.37C7.49232 76.0567 7.94565 75.9 8.45898 75.9C8.97232 75.9 9.42232 76.0567 9.80898 76.37C10.2023 76.6767 10.509 77.1 10.729 77.64C10.949 78.18 11.059 78.8 11.059 79.5C11.059 80.2 10.949 80.82 10.729 81.36C10.509 81.9 10.2023 82.3267 9.80898 82.64C9.42232 82.9467 8.97232 83.1 8.45898 83.1C7.94565 83.1 7.49232 82.9467 7.09898 82.64C6.71232 82.3267 6.40898 81.9 6.18898 81.36C5.96898 80.82 5.85898 80.2 5.85898 79.5ZM12.7051 79.5C12.7051 79.9067 12.7451 80.2833 12.8251 80.63C12.9051 80.97 13.0217 81.2667 13.1751 81.52C13.3284 81.7667 13.5117 81.96 13.7251 82.1C13.9451 82.2333 14.1884 82.3 14.4551 82.3C14.7284 82.3 14.9717 82.2333 15.1851 82.1C15.3984 81.96 15.5817 81.7667 15.7351 81.52C15.8884 81.2667 16.0051 80.97 16.0851 80.63C16.1651 80.2833 16.2051 79.9067 16.2051 79.5C16.2051 79.0933 16.1651 78.72 16.0851 78.38C16.0051 78.0333 15.8884 77.7367 15.7351 77.49C15.5817 77.2367 15.3984 77.0433 15.1851 76.91C14.9717 76.77 14.7284 76.7 14.4551 76.7C14.1884 76.7 13.9451 76.77 13.7251 76.91C13.5117 77.0433 13.3284 77.2367 13.1751 77.49C13.0217 77.7367 12.9051 78.0333 12.8251 78.38C12.7451 78.72 12.7051 79.0933 12.7051 79.5ZM11.8551 79.5C11.8551 78.8 11.9651 78.18 12.1851 77.64C12.4051 77.1 12.7084 76.6767 13.0951 76.37C13.4884 76.0567 13.9417 75.9 14.4551 75.9C14.9684 75.9 15.4184 76.0567 15.8051 76.37C16.1984 76.6767 16.5051 77.1 16.7251 77.64C16.9451 78.18 17.0551 78.8 17.0551 79.5C17.0551 80.2 16.9451 80.82 16.7251 81.36C16.5051 81.9 16.1984 82.3267 15.8051 82.64C15.4184 82.9467 14.9684 83.1 14.4551 83.1C13.9417 83.1 13.4884 82.9467 13.0951 82.64C12.7084 82.3267 12.4051 81.9 12.1851 81.36C11.9651 80.82 11.8551 80.2 11.8551 79.5ZM18.7012 79.5C18.7012 79.9067 18.7412 80.2833 18.8212 80.63C18.9012 80.97 19.0178 81.2667 19.1712 81.52C19.3245 81.7667 19.5078 81.96 19.7212 82.1C19.9412 82.2333 20.1845 82.3 20.4512 82.3C20.7245 82.3 20.9678 82.2333 21.1812 82.1C21.3945 81.96 21.5778 81.7667 21.7312 81.52C21.8845 81.2667 22.0012 80.97 22.0812 80.63C22.1612 80.2833 22.2012 79.9067 22.2012 79.5C22.2012 79.0933 22.1612 78.72 22.0812 78.38C22.0012 78.0333 21.8845 77.7367 21.7312 77.49C21.5778 77.2367 21.3945 77.0433 21.1812 76.91C20.9678 76.77 20.7245 76.7 20.4512 76.7C20.1845 76.7 19.9412 76.77 19.7212 76.91C19.5078 77.0433 19.3245 77.2367 19.1712 77.49C19.0178 77.7367 18.9012 78.0333 18.8212 78.38C18.7412 78.72 18.7012 79.0933 18.7012 79.5ZM17.8512 79.5C17.8512 78.8 17.9612 78.18 18.1812 77.64C18.4012 77.1 18.7045 76.6767 19.0912 76.37C19.4845 76.0567 19.9378 75.9 20.4512 75.9C20.9645 75.9 21.4145 76.0567 21.8012 76.37C22.1945 76.6767 22.5012 77.1 22.7212 77.64C22.9412 78.18 23.0512 78.8 23.0512 79.5C23.0512 80.2 22.9412 80.82 22.7212 81.36C22.5012 81.9 22.1945 82.3267 21.8012 82.64C21.4145 82.9467 20.9645 83.1 20.4512 83.1C19.9378 83.1 19.4845 82.9467 19.0912 82.64C18.7045 82.3267 18.4012 81.9 18.1812 81.36C17.9612 80.82 17.8512 80.2 17.8512 79.5ZM24.6973 79.5C24.6973 79.9067 24.7373 80.2833 24.8173 80.63C24.8973 80.97 25.0139 81.2667 25.1673 81.52C25.3206 81.7667 25.5039 81.96 25.7173 82.1C25.9373 82.2333 26.1806 82.3 26.4473 82.3C26.7206 82.3 26.9639 82.2333 27.1773 82.1C27.3906 81.96 27.5739 81.7667 27.7273 81.52C27.8806 81.2667 27.9973 80.97 28.0773 80.63C28.1573 80.2833 28.1973 79.9067 28.1973 79.5C28.1973 79.0933 28.1573 78.72 28.0773 78.38C27.9973 78.0333 27.8806 77.7367 27.7273 77.49C27.5739 77.2367 27.3906 77.0433 27.1773 76.91C26.9639 76.77 26.7206 76.7 26.4473 76.7C26.1806 76.7 25.9373 76.77 25.7173 76.91C25.5039 77.0433 25.3206 77.2367 25.1673 77.49C25.0139 77.7367 24.8973 78.0333 24.8173 78.38C24.7373 78.72 24.6973 79.0933 24.6973 79.5ZM23.8473 79.5C23.8473 78.8 23.9573 78.18 24.1773 77.64C24.3973 77.1 24.7006 76.6767 25.0873 76.37C25.4806 76.0567 25.9339 75.9 26.4473 75.9C26.9606 75.9 27.4106 76.0567 27.7973 76.37C28.1906 76.6767 28.4973 77.1 28.7173 77.64C28.9373 78.18 29.0473 78.8 29.0473 79.5C29.0473 80.2 28.9373 80.82 28.7173 81.36C28.4973 81.9 28.1906 82.3267 27.7973 82.64C27.4106 82.9467 26.9606 83.1 26.4473 83.1C25.9339 83.1 25.4806 82.9467 25.0873 82.64C24.7006 82.3267 24.3973 81.9 24.1773 81.36C23.9573 80.82 23.8473 80.2 23.8473 79.5Z" fill="white"/>
  <path d="M0.2 54.6L4.08 49H4.43V56H3.58V54.24V54.13V50.89L1.6 53.85H3.93H4.1H5.53V54.6H0.2ZM7.08008 52.5C7.08008 52.9067 7.12008 53.2833 7.20008 53.63C7.28008 53.97 7.39674 54.2667 7.55008 54.52C7.70341 54.7667 7.88674 54.96 8.10008 55.1C8.32008 55.2333 8.56341 55.3 8.83008 55.3C9.10341 55.3 9.34675 55.2333 9.56008 55.1C9.77341 54.96 9.95675 54.7667 10.1101 54.52C10.2634 54.2667 10.3801 53.97 10.4601 53.63C10.5401 53.2833 10.5801 52.9067 10.5801 52.5C10.5801 52.0933 10.5401 51.72 10.4601 51.38C10.3801 51.0333 10.2634 50.7367 10.1101 50.49C9.95675 50.2367 9.77341 50.0433 9.56008 49.91C9.34675 49.77 9.10341 49.7 8.83008 49.7C8.56341 49.7 8.32008 49.77 8.10008 49.91C7.88674 50.0433 7.70341 50.2367 7.55008 50.49C7.39674 50.7367 7.28008 51.0333 7.20008 51.38C7.12008 51.72 7.08008 52.0933 7.08008 52.5ZM6.23008 52.5C6.23008 51.8 6.34008 51.18 6.56008 50.64C6.78008 50.1 7.08341 49.6767 7.47008 49.37C7.86341 49.0567 8.31674 48.9 8.83008 48.9C9.34341 48.9 9.79341 49.0567 10.1801 49.37C10.5734 49.6767 10.8801 50.1 11.1001 50.64C11.3201 51.18 11.4301 51.8 11.4301 52.5C11.4301 53.2 11.3201 53.82 11.1001 54.36C10.8801 54.9 10.5734 55.3267 10.1801 55.64C9.79341 55.9467 9.34341 56.1 8.83008 56.1C8.31674 56.1 7.86341 55.9467 7.47008 55.64C7.08341 55.3267 6.78008 54.9 6.56008 54.36C6.34008 53.82 6.23008 53.2 6.23008 52.5ZM13.0762 52.5C13.0762 52.9067 13.1162 53.2833 13.1962 53.63C13.2762 53.97 13.3928 54.2667 13.5462 54.52C13.6995 54.7667 13.8828 54.96 14.0962 55.1C14.3162 55.2333 14.5595 55.3 14.8262 55.3C15.0995 55.3 15.3428 55.2333 15.5562 55.1C15.7695 54.96 15.9528 54.7667 16.1062 54.52C16.2595 54.2667 16.3762 53.97 16.4562 53.63C16.5362 53.2833 16.5762 52.9067 16.5762 52.5C16.5762 52.0933 16.5362 51.72 16.4562 51.38C16.3762 51.0333 16.2595 50.7367 16.1062 50.49C15.9528 50.2367 15.7695 50.0433 15.5562 49.91C15.3428 49.77 15.0995 49.7 14.8262 49.7C14.5595 49.7 14.3162 49.77 14.0962 49.91C13.8828 50.0433 13.6995 50.2367 13.5462 50.49C13.3928 50.7367 13.2762 51.0333 13.1962 51.38C13.1162 51.72 13.0762 52.0933 13.0762 52.5ZM12.2262 52.5C12.2262 51.8 12.3362 51.18 12.5562 50.64C12.7762 50.1 13.0795 49.6767 13.4662 49.37C13.8595 49.0567 14.3128 48.9 14.8262 48.9C15.3395 48.9 15.7895 49.0567 16.1762 49.37C16.5695 49.6767 16.8762 50.1 17.0962 50.64C17.3162 51.18 17.4262 51.8 17.4262 52.5C17.4262 53.2 17.3162 53.82 17.0962 54.36C16.8762 54.9 16.5695 55.3267 16.1762 55.64C15.7895 55.9467 15.3395 56.1 14.8262 56.1C14.3128 56.1 13.8595 55.9467 13.4662 55.64C13.0795 55.3267 12.7762 54.9 12.5562 54.36C12.3362 53.82 12.2262 53.2 12.2262 52.5ZM19.0723 52.5C19.0723 52.9067 19.1123 53.2833 19.1923 53.63C19.2723 53.97 19.3889 54.2667 19.5423 54.52C19.6956 54.7667 19.8789 54.96 20.0923 55.1C20.3123 55.2333 20.5556 55.3 20.8223 55.3C21.0956 55.3 21.3389 55.2333 21.5523 55.1C21.7656 54.96 21.9489 54.7667 22.1023 54.52C22.2556 54.2667 22.3723 53.97 22.4523 53.63C22.5323 53.2833 22.5723 52.9067 22.5723 52.5C22.5723 52.0933 22.5323 51.72 22.4523 51.38C22.3723 51.0333 22.2556 50.7367 22.1023 50.49C21.9489 50.2367 21.7656 50.0433 21.5523 49.91C21.3389 49.77 21.0956 49.7 20.8223 49.7C20.5556 49.7 20.3123 49.77 20.0923 49.91C19.8789 50.0433 19.6956 50.2367 19.5423 50.49C19.3889 50.7367 19.2723 51.0333 19.1923 51.38C19.1123 51.72 19.0723 52.0933 19.0723 52.5ZM18.2223 52.5C18.2223 51.8 18.3323 51.18 18.5523 50.64C18.7723 50.1 19.0756 49.6767 19.4623 49.37C19.8556 49.0567 20.3089 48.9 20.8223 48.9C21.3356 48.9 21.7856 49.0567 22.1723 49.37C22.5656 49.6767 22.8723 50.1 23.0923 50.64C23.3123 51.18 23.4223 51.8 23.4223 52.5C23.4223 53.2 23.3123 53.82 23.0923 54.36C22.8723 54.9 22.5656 55.3267 22.1723 55.64C21.7856 55.9467 21.3356 56.1 20.8223 56.1C20.3089 56.1 19.8556 55.9467 19.4623 55.64C19.0756 55.3267 18.7723 54.9 18.5523 54.36C18.3323 53.82 18.2223 53.2 18.2223 52.5ZM25.0684 52.5C25.0684 52.9067 25.1084 53.2833 25.1884 53.63C25.2684 53.97 25.385 54.2667 25.5384 54.52C25.6917 54.7667 25.875 54.96 26.0884 55.1C26.3084 55.2333 26.5517 55.3 26.8184 55.3C27.0917 55.3 27.335 55.2333 27.5484 55.1C27.7617 54.96 27.945 54.7667 28.0984 54.52C28.2517 54.2667 28.3684 53.97 28.4484 53.63C28.5284 53.2833 28.5684 52.9067 28.5684 52.5C28.5684 52.0933 28.5284 51.72 28.4484 51.38C28.3684 51.0333 28.2517 50.7367 28.0984 50.49C27.945 50.2367 27.7617 50.0433 27.5484 49.91C27.335 49.77 27.0917 49.7 26.8184 49.7C26.5517 49.7 26.3084 49.77 26.0884 49.91C25.875 50.0433 25.6917 50.2367 25.5384 50.49C25.385 50.7367 25.2684 51.0333 25.1884 51.38C25.1084 51.72 25.0684 52.0933 25.0684 52.5ZM24.2184 52.5C24.2184 51.8 24.3284 51.18 24.5484 50.64C24.7684 50.1 25.0717 49.6767 25.4584 49.37C25.8517 49.0567 26.305 48.9 26.8184 48.9C27.3317 48.9 27.7817 49.0567 28.1684 49.37C28.5617 49.6767 28.8684 50.1 29.0884 50.64C29.3084 51.18 29.4184 51.8 29.4184 52.5C29.4184 53.2 29.3084 53.82 29.0884 54.36C28.8684 54.9 28.5617 55.3267 28.1684 55.64C27.7817 55.9467 27.3317 56.1 26.8184 56.1C26.305 56.1 25.8517 55.9467 25.4584 55.64C25.0717 55.3267 24.7684 54.9 24.5484 54.36C24.3284 53.82 24.2184 53.2 24.2184 52.5Z" fill="white"/>
  <path d="M5.24 26.7C5.24 27.1 5.17667 27.45 5.05 27.75C4.92333 28.05 4.74667 28.3 4.52 28.5C4.29333 28.7 4.03333 28.85 3.74 28.95C3.44667 29.05 3.13 29.1 2.79 29.1C2.36333 29.1 1.99 29.0333 1.67 28.9C1.35667 28.7667 1.08667 28.59 0.86 28.37C0.64 28.1433 0.453333 27.8967 0.3 27.63L1.02 27.14C1.12667 27.34 1.26667 27.53 1.44 27.71C1.62 27.8833 1.82667 28.0267 2.06 28.14C2.29333 28.2467 2.53667 28.3 2.79 28.3C3.12333 28.3 3.40667 28.2333 3.64 28.1C3.87333 27.9667 4.05 27.78 4.17 27.54C4.29667 27.3 4.36 27.02 4.36 26.7C4.36 26.38 4.29 26.1 4.15 25.86C4.01667 25.62 3.83 25.4333 3.59 25.3C3.35667 25.1667 3.09 25.1 2.79 25.1C2.57 25.1 2.36667 25.12 2.18 25.16C2 25.1933 1.81667 25.2567 1.63 25.35C1.45 25.4367 1.24 25.5633 1 25.73L1.92 22H5.22V22.75H2.58L2.11 24.6C2.27667 24.5133 2.44667 24.45 2.62 24.41C2.8 24.3633 2.97667 24.34 3.15 24.34C3.55 24.34 3.90667 24.44 4.22 24.64C4.54 24.84 4.79 25.1167 4.97 25.47C5.15 25.8233 5.24 26.2333 5.24 26.7ZM6.89453 25.5C6.89453 25.9067 6.93453 26.2833 7.01453 26.63C7.09453 26.97 7.2112 27.2667 7.36453 27.52C7.51786 27.7667 7.7012 27.96 7.91453 28.1C8.13453 28.2333 8.37786 28.3 8.64453 28.3C8.91786 28.3 9.1612 28.2333 9.37453 28.1C9.58786 27.96 9.7712 27.7667 9.92453 27.52C10.0779 27.2667 10.1945 26.97 10.2745 26.63C10.3545 26.2833 10.3945 25.9067 10.3945 25.5C10.3945 25.0933 10.3545 24.72 10.2745 24.38C10.1945 24.0333 10.0779 23.7367 9.92453 23.49C9.7712 23.2367 9.58786 23.0433 9.37453 22.91C9.1612 22.77 8.91786 22.7 8.64453 22.7C8.37786 22.7 8.13453 22.77 7.91453 22.91C7.7012 23.0433 7.51786 23.2367 7.36453 23.49C7.2112 23.7367 7.09453 24.0333 7.01453 24.38C6.93453 24.72 6.89453 25.0933 6.89453 25.5ZM6.04453 25.5C6.04453 24.8 6.15453 24.18 6.37453 23.64C6.59453 23.1 6.89786 22.6767 7.28453 22.37C7.67786 22.0567 8.1312 21.9 8.64453 21.9C9.15786 21.9 9.60786 22.0567 9.99453 22.37C10.3879 22.6767 10.6945 23.1 10.9145 23.64C11.1345 24.18 11.2445 24.8 11.2445 25.5C11.2445 26.2 11.1345 26.82 10.9145 27.36C10.6945 27.9 10.3879 28.3267 9.99453 28.64C9.60786 28.9467 9.15786 29.1 8.64453 29.1C8.1312 29.1 7.67786 28.9467 7.28453 28.64C6.89786 28.3267 6.59453 27.9 6.37453 27.36C6.15453 26.82 6.04453 26.2 6.04453 25.5ZM12.8906 25.5C12.8906 25.9067 12.9306 26.2833 13.0106 26.63C13.0906 26.97 13.2073 27.2667 13.3606 27.52C13.514 27.7667 13.6973 27.96 13.9106 28.1C14.1306 28.2333 14.374 28.3 14.6406 28.3C14.914 28.3 15.1573 28.2333 15.3706 28.1C15.584 27.96 15.7673 27.7667 15.9206 27.52C16.074 27.2667 16.1906 26.97 16.2706 26.63C16.3506 26.2833 16.3906 25.9067 16.3906 25.5C16.3906 25.0933 16.3506 24.72 16.2706 24.38C16.1906 24.0333 16.074 23.7367 15.9206 23.49C15.7673 23.2367 15.584 23.0433 15.3706 22.91C15.1573 22.77 14.914 22.7 14.6406 22.7C14.374 22.7 14.1306 22.77 13.9106 22.91C13.6973 23.0433 13.514 23.2367 13.3606 23.49C13.2073 23.7367 13.0906 24.0333 13.0106 24.38C12.9306 24.72 12.8906 25.0933 12.8906 25.5ZM12.0406 25.5C12.0406 24.8 12.1506 24.18 12.3706 23.64C12.5906 23.1 12.894 22.6767 13.2806 22.37C13.674 22.0567 14.1273 21.9 14.6406 21.9C15.154 21.9 15.604 22.0567 15.9906 22.37C16.384 22.6767 16.6906 23.1 16.9106 23.64C17.1306 24.18 17.2406 24.8 17.2406 25.5C17.2406 26.2 17.1306 26.82 16.9106 27.36C16.6906 27.9 16.384 28.3267 15.9906 28.64C15.604 28.9467 15.154 29.1 14.6406 29.1C14.1273 29.1 13.674 28.9467 13.2806 28.64C12.894 28.3267 12.5906 27.9 12.3706 27.36C12.1506 26.82 12.0406 26.2 12.0406 25.5ZM18.8867 25.5C18.8867 25.9067 18.9267 26.2833 19.0067 26.63C19.0867 26.97 19.2034 27.2667 19.3567 27.52C19.5101 27.7667 19.6934 27.96 19.9067 28.1C20.1267 28.2333 20.3701 28.3 20.6367 28.3C20.9101 28.3 21.1534 28.2333 21.3667 28.1C21.5801 27.96 21.7634 27.7667 21.9167 27.52C22.0701 27.2667 22.1867 26.97 22.2667 26.63C22.3467 26.2833 22.3867 25.9067 22.3867 25.5C22.3867 25.0933 22.3467 24.72 22.2667 24.38C22.1867 24.0333 22.0701 23.7367 21.9167 23.49C21.7634 23.2367 21.5801 23.0433 21.3667 22.91C21.1534 22.77 20.9101 22.7 20.6367 22.7C20.3701 22.7 20.1267 22.77 19.9067 22.91C19.6934 23.0433 19.5101 23.2367 19.3567 23.49C19.2034 23.7367 19.0867 24.0333 19.0067 24.38C18.9267 24.72 18.8867 25.0933 18.8867 25.5ZM18.0367 25.5C18.0367 24.8 18.1467 24.18 18.3667 23.64C18.5867 23.1 18.8901 22.6767 19.2767 22.37C19.6701 22.0567 20.1234 21.9 20.6367 21.9C21.1501 21.9 21.6001 22.0567 21.9867 22.37C22.3801 22.6767 22.6867 23.1 22.9067 23.64C23.1267 24.18 23.2367 24.8 23.2367 25.5C23.2367 26.2 23.1267 26.82 22.9067 27.36C22.6867 27.9 22.3801 28.3267 21.9867 28.64C21.6001 28.9467 21.1501 29.1 20.6367 29.1C20.1234 29.1 19.6701 28.9467 19.2767 28.64C18.8901 28.3267 18.5867 27.9 18.3667 27.36C18.1467 26.82 18.0367 26.2 18.0367 25.5ZM24.8828 25.5C24.8828 25.9067 24.9228 26.2833 25.0028 26.63C25.0828 26.97 25.1995 27.2667 25.3528 27.52C25.5061 27.7667 25.6895 27.96 25.9028 28.1C26.1228 28.2333 26.3661 28.3 26.6328 28.3C26.9061 28.3 27.1495 28.2333 27.3628 28.1C27.5761 27.96 27.7595 27.7667 27.9128 27.52C28.0661 27.2667 28.1828 26.97 28.2628 26.63C28.3428 26.2833 28.3828 25.9067 28.3828 25.5C28.3828 25.0933 28.3428 24.72 28.2628 24.38C28.1828 24.0333 28.0661 23.7367 27.9128 23.49C27.7595 23.2367 27.5761 23.0433 27.3628 22.91C27.1495 22.77 26.9061 22.7 26.6328 22.7C26.3661 22.7 26.1228 22.77 25.9028 22.91C25.6895 23.0433 25.5061 23.2367 25.3528 23.49C25.1995 23.7367 25.0828 24.0333 25.0028 24.38C24.9228 24.72 24.8828 25.0933 24.8828 25.5ZM24.0328 25.5C24.0328 24.8 24.1428 24.18 24.3628 23.64C24.5828 23.1 24.8861 22.6767 25.2728 22.37C25.6661 22.0567 26.1195 21.9 26.6328 21.9C27.1461 21.9 27.5961 22.0567 27.9828 22.37C28.3761 22.6767 28.6828 23.1 28.9028 23.64C29.1228 24.18 29.2328 24.8 29.2328 25.5C29.2328 26.2 29.1228 26.82 28.9028 27.36C28.6828 27.9 28.3761 28.3267 27.9828 28.64C27.5961 28.9467 27.1461 29.1 26.6328 29.1C26.1195 29.1 25.6661 28.9467 25.2728 28.64C24.8861 28.3267 24.5828 27.9 24.3628 27.36C24.1428 26.82 24.0328 26.2 24.0328 25.5Z" fill="white"/>
  <path d="M354 137L42.7242 137" stroke="#E0E0E0" stroke-linecap="round"/>
  <path d="M42.7241 13L42.7241 137" stroke="#E0E0E0" stroke-linecap="round"/>
  <path d="M339.759 137L339.759 13" stroke="white" stroke-opacity="0.35" stroke-width="0.5" stroke-dasharray="1 1"/>
  <path d="M313.31 137L313.31 13" stroke="white" stroke-opacity="0.35" stroke-width="0.5" stroke-dasharray="1 1"/>
  <path d="M286.862 137L286.862 13" stroke="white" stroke-opacity="0.35" stroke-width="0.5" stroke-dasharray="1 1"/>
  <path d="M260.414 137L260.414 13" stroke="white" stroke-opacity="0.35" stroke-width="0.5" stroke-dasharray="1 1"/>
  <path d="M233.966 137L233.966 13" stroke="white" stroke-opacity="0.35" stroke-width="0.5" stroke-dasharray="1 1"/>
  <path d="M207.517 137L207.517 13" stroke="white" stroke-opacity="0.35" stroke-width="0.5" stroke-dasharray="1 1"/>
  <path d="M181.069 137L181.069 13" stroke="white" stroke-opacity="0.35" stroke-width="0.5" stroke-dasharray="1 1"/>
  <path d="M154.621 137L154.621 13" stroke="white" stroke-opacity="0.35" stroke-width="0.5" stroke-dasharray="1 1"/>
  <path d="M128.172 137L128.172 13" stroke="white" stroke-opacity="0.35" stroke-width="0.5" stroke-dasharray="1 1"/>
  <path d="M101.724 137L101.724 13" stroke="white" stroke-opacity="0.35" stroke-width="0.5" stroke-dasharray="1 1"/>
  <path d="M75.2759 137L75.2759 13" stroke="white" stroke-opacity="0.35" stroke-width="0.5" stroke-dasharray="1 1"/>
  <path d="M42.7242 107L354 107" stroke="white" stroke-opacity="0.35" stroke-width="0.5" stroke-dasharray="1 1"/>
  <path d="M42.7242 80L354 80" stroke="white" stroke-opacity="0.35" stroke-width="0.5" stroke-dasharray="1 1"/>
  <path d="M42.7242 53L354 53" stroke="white" stroke-opacity="0.35" stroke-width="0.5" stroke-dasharray="1 1"/>
  <path d="M42.7242 26L354 26" stroke="white" stroke-opacity="0.35" stroke-width="0.5" stroke-dasharray="1 1"/>
  <path d="M42.7241 137L120.882 73.2429L160.187 89.8097L226.598 40.1093L282.619 94.83L354 13" stroke="url(#paint0_linear_0_593)"/>
  <rect x="53.9138" width="49.8448" height="26.1558" rx="10.1299" fill="#44C759"/>
  <path d="M68.2862 10.6579L66.3362 15.7779H65.4362L68.2862 8.72788L71.1362 15.7779H70.2362L68.2862 10.6579ZM71.0862 16.0779H65.4862V17.1779H64.7362V15.2779H71.8362V17.1779H71.0862V16.0779ZM72.6354 13.7779C72.6354 13.3112 72.7387 12.8979 72.9454 12.5379C73.1587 12.1779 73.4454 11.8945 73.8054 11.6879C74.1654 11.4812 74.5687 11.3779 75.0154 11.3779C75.4687 11.3779 75.8721 11.4812 76.2254 11.6879C76.5854 11.8945 76.8687 12.1779 77.0754 12.5379C77.2887 12.8979 77.3954 13.3112 77.3954 13.7779C77.3954 14.2379 77.2887 14.6512 77.0754 15.0179C76.8687 15.3779 76.5854 15.6612 76.2254 15.8679C75.8721 16.0745 75.4687 16.1779 75.0154 16.1779C74.5687 16.1779 74.1654 16.0745 73.8054 15.8679C73.4454 15.6612 73.1587 15.3779 72.9454 15.0179C72.7387 14.6512 72.6354 14.2379 72.6354 13.7779ZM73.4454 13.7779C73.4454 14.0979 73.5121 14.3812 73.6454 14.6279C73.7854 14.8745 73.9721 15.0712 74.2054 15.2179C74.4454 15.3579 74.7154 15.4279 75.0154 15.4279C75.3154 15.4279 75.5821 15.3579 75.8154 15.2179C76.0554 15.0712 76.2421 14.8745 76.3754 14.6279C76.5154 14.3812 76.5854 14.0979 76.5854 13.7779C76.5854 13.4579 76.5154 13.1745 76.3754 12.9279C76.2421 12.6745 76.0554 12.4779 75.8154 12.3379C75.5821 12.1979 75.3154 12.1279 75.0154 12.1279C74.7154 12.1279 74.4454 12.1979 74.2054 12.3379C73.9721 12.4779 73.7854 12.6745 73.6454 12.9279C73.5121 13.1745 73.4454 13.4579 73.4454 13.7779ZM80.7979 11.4779H81.6979L80.1279 13.7079L81.7979 16.0779H80.8979L79.6979 14.3379L78.4979 16.0779H77.5979L79.2679 13.7079L77.6979 11.4779H78.5979L79.6979 13.0779L80.7979 11.4779ZM82.0006 13.7779C82.0006 13.3112 82.104 12.8979 82.3106 12.5379C82.524 12.1779 82.8106 11.8945 83.1706 11.6879C83.5306 11.4812 83.934 11.3779 84.3806 11.3779C84.834 11.3779 85.2373 11.4812 85.5906 11.6879C85.9506 11.8945 86.234 12.1779 86.4406 12.5379C86.654 12.8979 86.7606 13.3112 86.7606 13.7779C86.7606 14.2379 86.654 14.6512 86.4406 15.0179C86.234 15.3779 85.9506 15.6612 85.5906 15.8679C85.2373 16.0745 84.834 16.1779 84.3806 16.1779C83.934 16.1779 83.5306 16.0745 83.1706 15.8679C82.8106 15.6612 82.524 15.3779 82.3106 15.0179C82.104 14.6512 82.0006 14.2379 82.0006 13.7779ZM82.8106 13.7779C82.8106 14.0979 82.8773 14.3812 83.0106 14.6279C83.1506 14.8745 83.3373 15.0712 83.5706 15.2179C83.8106 15.3579 84.0806 15.4279 84.3806 15.4279C84.6806 15.4279 84.9473 15.3579 85.1806 15.2179C85.4206 15.0712 85.6073 14.8745 85.7406 14.6279C85.8806 14.3812 85.9506 14.0979 85.9506 13.7779C85.9506 13.4579 85.8806 13.1745 85.7406 12.9279C85.6073 12.6745 85.4206 12.4779 85.1806 12.3379C84.9473 12.1979 84.6806 12.1279 84.3806 12.1279C84.0806 12.1279 83.8106 12.1979 83.5706 12.3379C83.3373 12.4779 83.1506 12.6745 83.0106 12.9279C82.8773 13.1745 82.8106 13.4579 82.8106 13.7779ZM89.8616 12.8579L88.5116 15.7779H87.6116L89.8616 11.1279L92.1116 15.7779H91.2116L89.8616 12.8579ZM91.9116 16.0779H87.8616V16.9779H87.0116V15.3279H92.7116V16.9779H91.9116V16.0779Z" fill="white"/>
  <defs>
    <linearGradient id="paint0_linear_0_593" x1="192.259" y1="137" x2="192.259" y2="13" gradientUnits="userSpaceOnUse">
      <stop stop-color="#9B2F2F"/>
      <stop offset="1" stop-color="#2F9B3A"/>
    </linearGradient>
  </defs>
</svg>
