<svg width="77" height="40" viewBox="0 0 77 40" fill="none"
  xmlns="http://www.w3.org/2000/svg">
  <rect width="77" height="40" rx="20" fill="black" fill-opacity="0.1"/>
  <path fill-rule="evenodd" clip-rule="evenodd" d="M32.0739 12.6915C31.2407 13.3829 31.0212 14.5534 30.5823 16.8943L29.8323 20.8943C29.2151 24.186 28.9065 25.8318 29.8062 26.9159C30.706 28 32.3805 28 35.7295 28H41.2704C44.6195 28 46.294 28 47.1937 26.9159C48.0934 25.8318 47.7849 24.186 47.1677 20.8943L46.4177 16.8943C45.9787 14.5534 45.7593 13.3829 44.9261 12.6915C44.0929 12 42.9021 12 40.5204 12H36.4795C34.0979 12 32.907 12 32.0739 12.6915ZM36.3782 15.7501C36.6875 16.625 37.5219 17.25 38.5004 17.25C39.4789 17.25 40.3133 16.625 40.6225 15.7501C40.7606 15.3595 41.1891 15.1548 41.5796 15.2929C41.9701 15.4309 42.1748 15.8594 42.0368 16.2499C41.5224 17.7054 40.1343 18.75 38.5004 18.75C36.8664 18.75 35.4784 17.7054 34.964 16.2499C34.8259 15.8594 35.0306 15.4309 35.4212 15.2929C35.8117 15.1548 36.2402 15.3595 36.3782 15.7501Z" fill="black"/>
</svg>
